# xmcd CD database file
#
# Track frame offsets:
#	182
#	20910
#	41615
#	72355
#	112420
#	135067
#	157682
#	189632
#	207902
#	229767
#	259240
#
# Disc length: 4200 seconds
#
# Revision: 1
# Processed by: cddbd v1.5.1PL2 Copyright (c) Steve Scherf et al.
# Submitted via: CDex 1.51
#
DISCID=9910660b
DTITLE=Eric Clapton - Same Old Blues Power
DYEAR=1985
DGENRE=Blues
TTITLE0=Everybody Ought To Make A Change
TTITLE1=Motherless Children
TTITLE2=I Shot The Sheriff
TTITLE3=Same Old Blues
TTITLE4=Blues Power
TTITLE5=Tangled In Love
TTITLE6=Badge
TTITLE7=Behind The Sun
TTITLE8=Wonderful Tonight
TTITLE9=Let It Rain
TTITLE10=Have You Ever Loved A Woman
EXTD=YEAR: 1985
EXTT0=
EXTT1=
EXTT2=
EXTT3=
EXTT4=
EXTT5=
EXTT6=
EXTT7=
EXTT8=
EXTT9=
EXTT10=
PLAYORDER=
